/* XPM */
static char *result[] = {
/* columns rows colors chars-per-pixel */
"32 32 4 1 ",
"  c black",
". c #7D0001",
"X c #EF0106",
"o c None",
/* pixels */
"oooooooooooooooooooooooooooooooo",
"oooooooooooooooooooooooooooooooo",
"oooooooooooooooooooooooooooooooo",
"oooooooooooo       ooooooooooooo",
"oooooooooo  ....XXX  ooooooooooo",
"ooooooooo .....XXXXXX oooooooooo",
"oooooooo ....XXXXXXXXX ooooooooo",
"oooooooo ....XXXXXXXXX ooooooooo",
"ooooooo  ...XXXXXXXXXX  oooooooo",
"ooooooo ....XXXXXXXXXXX oooooooo",
"ooooooo ....XXXXXXXXXXX oooooooo",
"ooooooo ....XXXXXXXXXXX oooooooo",
"ooooooo ....XXXXXXXXXXX oooooooo",
"ooooooo ....XXXXXXXXXXX oooooooo",
"ooooooo ....XXXXXXXXXXX oooooooo",
"ooooooo ....XXXXXXXXXXX oooooooo",
"ooooooo ....XXXXXXXXXXX oooooooo",
"ooooooo ....XXXXXXXXXXX  ooooooo",
"oooooo  ....XXXXXXXXXXX X oooooo",
"ooooo . ...XXXXXXXXXXXX X oooooo",
"ooooo . ...XXXXXXXXXXXX X oooooo",
"ooooo . ...XXXXXXXXXXXX X oooooo",
"oooooo  ...XXXXXXXXXXXX   oooooo",
"oooooo  ...XXX X .XXXXX  ooooooo",
"ooooooo ...XXXX ..XXXXX oooooooo",
"ooooooo ...XXXX .XXXXXX oooooooo",
"ooooooo ...XXXX ..XXXXX oooooooo",
"ooooooo ....XX   ..XXXX oooooooo",
"ooooooo                 oooooooo",
"ooooooo ..XXXXX ..XXXXX oooooooo",
"ooooooo                 oooooooo",
"oooooooooooooooooooooooooooooooo"
};
