/* XPM */
static char *result[] = {
/* columns rows colors chars-per-pixel */
"32 32 5 1 ",
"  c black",
". c #7D0001",
"X c #EF0106",
"o c #ACACAC",
"O c None",
/* pixels */
"OOOOOOOOOOOOOOOOOOOOOOOOOOOOOOOO",
"OOOOOOOOOOOOOOOOOOOOOOOOOOOOOOOO",
"OOOOOOOOOOOOOOOOOOOOOOOOOOOOOOOO",
"OOOOOOOOOOOO       OOOOOOOOOOOOO",
"OOOOOOOOOO  ....XXX  OOOOOOOOOOO",
"OOOOOOOOO .....XXXXXX OOOOOOOOOO",
"OOOOOOOO ....XXXXXXXXX OOOOOOOOO",
"OOOOOOOO ....XXXXXXXXX OOOOOOOOO",
"OOOOOOO  ...XXXXXXXXXX  OOOOOOOO",
"OOOOOOO ....XXXXXXXXXXX OOOOOOOO",
"OOOOOOO ....XXXXXXXXXXX OOOOOOOO",
"OOOOOOO ....XXXXXXXXXXX OOOOOOOO",
"OOOOOOO ....XXXXXXXXXXX OOOOOOOO",
"OOOOOOO ....XXXXXXXXXXX OOOOOOOO",
"OOOOOOO ....XXXXXXXXXXX OOOOOOOO",
"OOOOOOO ....XXXXXXXXXXX OOOOOOOO",
"OOOOOO  ....XXXXXXXXXXX OOOOOOOO",
"OOOOO . ....XXXXXXXXXXX OOOOOOOO",
"OOOOO . ....XXXXXXXXXX   OOOOOOO",
"OOOOO . ...XXXXXXXXXX ..X OOOOOO",
"OOOOO   ...XXXXXXXXXX .XX OOOOOO",
"OOOOOO  ...XXXXXXXXXX ..X OOOOOO",
"OOOOOOO ...XXXXXXXXXXX . OOOOOOO",
"OOOOOOO ...XXX X .XXXX   OOOOOOO",
"OOOOOOO ...XXXX ..XXXXX OOOOOOOO",
"OOOOOOO .     X .XXXXXX OOOOOOOO",
"OOOOOOO   ooo   ..XXXXX OOOOOOOO",
"OOOOOOO  ooooo   ..XXXX OOOOOOOO",
"OOOOOOO  o   o          OOOOOOOO",
"OOOOOOO  ooooo    .XXX  OOOOOOOO",
"OOOOOOO  o   o  O      OOOOOOOOO",
"OOOOOOOO       OOOOOOOOOOOOOOOOO"
};
