/* XPM */
static char *result[] = {
/* columns rows colors chars-per-pixel */
"32 32 6 1 ",
"  c black",
". c #7D0001",
"X c #EF0106",
"o c #ACACAC",
"O c white",
"+ c None",
/* pixels */
"++++++++++++++++++++++++++++++++",
"++++++++++++++++++++++++++++++++",
"+++++++++++         ++++++++++++",
"++++++++++ ....XXXXX +++++++++++",
"+++++++++ ....XXXXXXX ++++++++++",
"+++++++++ ....XXXXXXX ++++++++++",
"++++++++ ...XXXXXXXXXX +++++++++",
"+++++++ ...XXXXXXXXXXXX ++++++++",
"+++++++ ...X         XX ++++++++",
"+++++++ ... OOOOOOOO XX ++++++++",
"+++++++ ..  OOoOOOOO  X ++++++++",
"+++++++ ..  OoOOOOoOO X ++++++++",
"+++++++ ..  OOOOOoOO  X ++++++++",
"+++++++ ... OOOOoOOO XX ++++++++",
"+++++++ ...          XX ++++++++",
"+++++++ ....XXXXXXXXXXX  +++++++",
"+++++++ ....XXXXXXXXXXX   ++++++",
"+++++++   .XXXXXXXXXXXX X ++++++",
"++++++ .XX XXXXXXXXXXXX X ++++++",
"++++++ .XX XXXXXXXXXXXX X ++++++",
"++++++ .XX XXXXXXXXXXXX   ++++++",
"+++++++ . XXXXXXXXXXXXX  +++++++",
"+++++++   XXXXXXXXXXXXX ++++++++",
"+++++++ ..XXXXXXX     X ++++++++",
"+++++++ ..XXXXXXX ooo   ++++++++",
"+++++++ ...XXXXX ooooo  ++++++++",
"+++++++ ...XXXX. o   o  ++++++++",
"+++++++ ....XX   ooooo  ++++++++",
"+++++++   ..XX   o   o  ++++++++",
"+++++++ .     X  ooooo  ++++++++",
"+++++++  .XXXX    ooo   ++++++++",
"++++++++       ++     ++++++++++"
};
