/* XPM */
static char *result[] = {
/* columns rows colors chars-per-pixel */
"32 32 6 1 ",
"  c black",
". c #7D0001",
"X c #EF0106",
"o c #ACACAC",
"O c white",
"+ c None",
/* pixels */
"++++++++++++++++++++++++++++++++",
"++++++++++++++++++++++++++++++++",
"++++++++++++       +++++++++++++",
"++++++++++  ..XXXXX  +++++++++++",
"+++++++++ ..XXXXXXXXX ++++++++++",
"++++++++ ..XXXXXXXXXXX +++++++++",
"++++++++ ..XXXXXXXXXXX +++++++++",
"+++++++  ..XXXXXXXXXXX  ++++++++",
"+++++++     XXXXXXXXXXX ++++++++",
"+++++++ ooo XXXXXXXXXXX ++++++++",
"+++++++ ooOO XXXXXXXXXX ++++++++",
"+++++++ OoOO XXXXXXXXXX ++++++++",
"+++++++ oOOO XXXXXXXXXX ++++++++",
"+++++++ oooO XXXXXXXXXX ++++++++",
"+++++++     XXXXXXXXXXX ++++++++",
"+++++++ ....XXXXXXXXXXX ++++++++",
"+++++++ ..XXXXXXXXXXXXX ++++++++",
"+++++++ ..XXXX   XXXXXX ++++++++",
"+++++++ ..XXX ..X XXXXX ++++++++",
"+++++++ ..XXX .XX XXXXX ++++++++",
"+++++++ ..XXX ..X XXXXX ++++++++",
"+++++++ ..XXXX . XXXXXX ++++++++",
"+++++++ ..XXXX   XXXXXX ++++++++",
"+++++++ ..XXXXXXXXXXXXX ++++++++",
"+++++++ ...XXXXXXXXXXXX ++++++++",
"+++++++ ....XXXXXXXXXXX ++++++++",
"+++++++        XXXXXXX  ++++++++",
"+++++++ ...XXXX XX     +++++++++",
"++++++ ..XXXXXX  X +++++++++++++",
"++++++ ooooooooo   +++++++++++++",
"++++++            ++++++++++++++",
"++++++++++++++++++++++++++++++++"
};
