/* XPM */
static char *result[] = {
/* columns rows colors chars-per-pixel */
"32 32 6 1 ",
"  c black",
". c #7D0001",
"X c #EF0106",
"o c #ACACAC",
"O c white",
"+ c None",
/* pixels */
"++++++++++++++++++++++++++++++++",
"++++++++++++++++++++++++++++++++",
"++++++++++++++++++++++++++++++++",
"++++++++++++       +++++++++++++",
"++++++++++  ....XXX  +++++++++++",
"+++++++++ ...XXXXXXXX ++++++++++",
"++++++++ ....XXXXXXXXX +++++++++",
"++++++++ ...XXXXXXXXXX +++++++++",
"+++++++  ...XXXXXXXXXX  ++++++++",
"+++++++     XXXXXXXXXXX ++++++++",
"+++++++ ooo XXXXXXXXXXX ++++++++",
"+++++++ oooO XXXXXXXXXX ++++++++",
"+++++++ oOoO XXXXXXXXXX ++++++++",
"+++++++ oOOO XXXXXXXXXX ++++++++",
"+++++++ oooO XXXXXXXXXX ++++++++",
"+++++++     XXXXXXXXXXX ++++++++",
"+++++++ ...XXXXXXXXXXXX ++++++++",
"+++++++ ...XXXXXXXXXXXX ++++++++",
"+++++++ ...XXX   XXXXXX ++++++++",
"+++++++ ...XX ..X XXXXX ++++++++",
"+++++++ ...XX .XX XXXXX ++++++++",
"+++++++ ...XX ..X XXXXX ++++++++",
"+++++++ ...XXX . XXXXXX ++++++++",
"+++++++ ...XXX   XXXXXX ++++++++",
"+++++++ ....XXXXXXXXXXX ++++++++",
"+++++++ .....XXXXXXXXXX ++++++++",
"+++++++        XXXXXXXX ++++++++",
"+++++++ ..XXXXX XXXXXX  ++++++++",
"++++++ ..XXXXXX  X     +++++++++",
"++++++ ooooooooo   +++++++++++++",
"++++++            ++++++++++++++",
"++++++++++++++++++++++++++++++++"
};
