/* XPM */
static char *result[] = {
/* columns rows colors chars-per-pixel */
"32 32 6 1 ",
"  c black",
". c #7D0001",
"X c #EF0106",
"o c #ACACAC",
"O c white",
"+ c None",
/* pixels */
"++++++++++++++++++++++++++++++++",
"++++++++++++++++++++++++++++++++",
"++++++++++++       +++++++++++++",
"++++++++++  ..XXXXX  +++++++++++",
"+++++++++ ..XXXXXXXXX ++++++++++",
"++++++++ ..XXXXXXXXXXX +++++++++",
"++++++++ ..XXXXXXXXXXX +++++++++",
"+++++++  ..XXXXXXXXXXX  ++++++++",
"+++++++     XXXXXXXXXXX ++++++++",
"+++++++ ooO XXXXXXXXXXX ++++++++",
"+++++++ oOOO XXXXXXXXXX ++++++++",
"+++++++ ooOO XXXXXXXXXX ++++++++",
"+++++++ oOOO XXXXXXXXXX ++++++++",
"+++++++ ooOO XXXXXXXXXX ++++++++",
"+++++++     XXXXXXXXXXX ++++++++",
"+++++++ ..XXXXXXXXXXXXX ++++++++",
"+++++++ ..XX   XXXXXXXX ++++++++",
"+++++++ ..X ..X XXXXXXX ++++++++",
"+++++++ ..X .XX XXXXXXX ++++++++",
"+++++++ ..X ..X XXXXXXX ++++++++",
"+++++++ ..XX . XXXXXXXX ++++++++",
"+++++++ ..XX   XXXXXXXX ++++++++",
"+++++++ ..XXXXXXXXXXXXX ++++++++",
"+++++++ ..XXXXXXXXXXXXX ++++++++",
"+++++++ ...XXXXXXXX     ++++++++",
"++++++   ...XXXXXX  .XX ++++++++",
"++++++ .  ...XXXX  .XXo ++++++++",
"++++++ .X         .XXo  ++++++++",
"++++++  ooooo +  .XXo  +++++++++",
"+++++++       + .XXo  ++++++++++",
"+++++++++++++++ ooo  +++++++++++",
"+++++++++++++++     ++++++++++++"
};
