/* XPM */
static char *result[] = {
/* columns rows colors chars-per-pixel */
"32 32 6 1 ",
"  c black",
". c #7D0001",
"X c #EF0106",
"o c #ACACAC",
"O c white",
"+ c None",
/* pixels */
"++++++++++++++++++++++++++++++++",
"++++++++++++++++++++++++++++++++",
"++++++++++++++++++++++++++++++++",
"++++++++++++       +++++++++++++",
"++++++++++  ...XXXX  +++++++++++",
"+++++++++ ...XXXXXXXX ++++++++++",
"++++++++ ...XXXXXXXXXX +++++++++",
"++++++++ ...XXXXXXXXXX +++++++++",
"+++++++  ...XXXXXXXXXX  ++++++++",
"+++++++     XXXXXXXXXXX ++++++++",
"+++++++ ooo XXXXXXXXXXX ++++++++",
"+++++++ oooO XXXXXXXXXX ++++++++",
"+++++++ OOoO XXXXXXXXXX ++++++++",
"+++++++ oOoO XXXXXXXXXX ++++++++",
"+++++++ oooO XXXXXXXXXX ++++++++",
"+++++++     XXXXXXXXXXX ++++++++",
"+++++++ ...XXXXXXXXXXXX ++++++++",
"+++++++ ...XXXXXXX   XX ++++++++",
"+++++++ ...XXXXXX ..X X ++++++++",
"+++++++ ...XXXXXX .XX X ++++++++",
"+++++++ ...XXXXXX ..X X ++++++++",
"+++++++ ...XXXXXXX . XX ++++++++",
"+++++++ ...XXXXXXX   XX ++++++++",
"+++++++ ...XXXXXXXXXXXX ++++++++",
"++++     ...XXXXXXXXXXX ++++++++",
"++++ XXX  ...XXXXXXXXXX ++++++++",
"++++ oXXX  ..XXXXXXXXXX ++++++++",
"++++  oXXX  ..XXXXXXXX  ++++++++",
"+++++  oXXX  .XXXX     +++++++++",
"++++++  oXXX ...   Xo ++++++++++",
"+++++++  oXX     ooo  ++++++++++",
"++++++++     +++     +++++++++++"
};
