/* XPM */
static char *result[] = {
/* columns rows colors chars-per-pixel */
"32 32 9 1 ",
"  c black",
". c #7D0001",
"X c #7F0001",
"o c #880001",
"O c #900002",
"+ c #EF0106",
"@ c #ACACAC",
"# c white",
"$ c None",
/* pixels */
"$$$$$$$$$$$$$$$$$$$$$$$$$$$$$$$$",
"$$$$$$$$$$$$$$$$$$$$$$$$$$$$$$$$",
"$$$$$$$$$$$$$$$$$$$$$$$$$$$$$$$$",
"$$$$$$$$$$$$       $$$$$$$$$$$$$",
"$$$$$$$$$$  ....+++  $$$$$$$$$$$",
"$$$$$$$$$ ......+++++ $$$$$$$$$$",
"$$$$$$$$ .....++++++++ $$$$$$$$$",
"$$$$$$$$ ...++++++++++ $$$$$$$$$",
"$$$$$$$  ...++++++++++  $$$$$$$$",
"$$$$$$$ ...++++++++     $$$$$$$$",
"$$$$$$$ ...++++++++ ### $$$$$$$$",
"$$$$$$$ ...+++++++ #### $$$$$$$$",
"$$$$$$$ ...+++++++ ###@ $$$$$$$$",
"$$$$$$$ ...+++++++ ##@# $$$$$$$$",
"$$$$$$$ ...+++++++ #### $$$$$$$$",
"$$$$$$$ ...++++++++     $$$$$$$$",
"$$$$$$$ ...++++++++++++ $$$$$$$$",
"$$$$$$$ .X   ++++++++++ $$$$$$$$",
"$$$$$$$ . ..+ +++++++++ $$$$$$$$",
"$$$$$$$ . .++ +++++++++ $$$$$$$$",
"$$$$$$$ . ..+ +++++++++ $$$$$$$$",
"$$$$$$$ .O . ++++++++++ $$$$$$$$",
"$$$$$$$ .o   ++++++++++ $$$$$$$$",
"$$$$$$$ ...++++++++++++ $$$$$$$$",
"$$$$$$$ ...+++++++++++     $$$$$",
"$$$$$$$ ...++++++++++  .++ $$$$$",
"$$$$$$$ ...+++++++++  .++@ $$$$$",
"$$$$$$$  ...+++++++  .++@  $$$$$",
"$$$$$$$$     +++++  .++@  $$$$$$",
"$$$$$$$$$ .+   +++ .++@  $$$$$$$",
"$$$$$$$$$  @@@     .+@  $$$$$$$$",
"$$$$$$$$$$     $$$     $$$$$$$$$"
};
