/* XPM */
static char *d0cc47d8d3564341dbd7f47013e89537xyJOGFFoxBycNrrU[] = {
/* columns rows colors chars-per-pixel */
"32 32 2 1 ",
"  c #3E314C",
". c #9483A8",
/* pixels */
"                                ",
"                                ",
"                                ",
"                                ",
"    ........................    ",
"    ........................    ",
"    ........................    ",
"    ........................    ",
"    ........................    ",
"    ........................    ",
"    ........................    ",
"    ........................    ",
"    ........................    ",
"    ........................    ",
"    ........................    ",
"    ........................    ",
"    ........................    ",
"    ........................    ",
"    ........................    ",
"    ........................    ",
"    ........................    ",
"    ........................    ",
"    ........................    ",
"    ........................    ",
"    ........................    ",
"    ........................    ",
"    ........................    ",
"    ........................    ",
"    ........................    ",
"    ........................    ",
"    ........................    ",
"    ........................    "
};
