/* XPM */
static char *ef67717d44ca443da644e27cbd9f1bf4I3AcHWLKDyui0YZb[] = {
/* columns rows colors chars-per-pixel */
"32 32 2 1 ",
"  c #3E314C",
". c #9483A8",
/* pixels */
"                                ",
"                                ",
"                                ",
"                                ",
"    ............................",
"    ............................",
"    ............................",
"    ............................",
"    ............................",
"    ............................",
"    ............................",
"    ............................",
"    ............................",
"    ............................",
"    ............................",
"    ............................",
"    ............................",
"    ............................",
"    ............................",
"    ............................",
"    ............................",
"    ............................",
"    ............................",
"    ............................",
"    ............................",
"    ............................",
"    ............................",
"    ............................",
"    ............................",
"    ............................",
"    ............................",
"    ............................"
};
