/* XPM */
static char * exemple_xpm[] = {
"32 32 4 1",
" 	c None",
".	c #00FF00",
"+	c #FF0000",
"o	c #FFFFFF",
"                                ",
"    oo                          ",
"   o..oooooooooo                ",
"  o.....++++++++o               ",
" o........+++++++o              ",
" o.........+++++++o             ",
" o...........++++++o            ",
" o............++++++o           ",
"  o.............++++o           ",
"   o.............+++o           ",
"   o+.............++o           ",
"   o++.............+o           ",
"   o++++.............o          ",
"   o+++++.............o         ",
"   o+++++++...........o         ",
"   o++++++++..........o         ",
"    o++++++++.........o         ",
"     o+++++++++......o          ",
"      o+++++++++....o           ",
"       o+++++++o ooo            ",
"       o+++++++o                ",
"       o+++++++o                ",
"       o+++++++o                ",
"       o+++++++o                ",
"       o.......o                ",
"       o.......o                ",
"       o.......o                ",
"       o.......o                ",
"       o.......o                ",
"       o.......o                ",
"oooooooo.......ooooooooooooooooo",
"oooooooooooooooooooooooooooooooo"};
