/* XPM */
static char *result[] = {
/* columns rows colors chars-per-pixel */
"32 32 4 1 ",
"  c black",
". c #7D0001",
"X c #EF0106",
"o c None",
/* pixels */
"oooooooooooooooooooooooooooooooo",
"oooooooooooooooooooooooooooooooo",
"ooooooooooo         oooooooooooo",
"oooooooooo ....XXXXX ooooooooooo",
"ooooooooo ....XXXXXXX oooooooooo",
"ooooooooo ....XXXXXXX oooooooooo",
"oooooooo ...XXXXXXXXXX ooooooooo",
"ooooooo ...XXXXXXXXXXXX oooooooo",
"ooooooo ...XXXXXXXXXXXX oooooooo",
"ooooooo ...XXXXXXXXXXXX oooooooo",
"ooooooo ...XXXXXXXXXXXX oooooooo",
"ooooooo ...XXXXXXXXXXXX oooooooo",
"ooooooo ...XXXXXXXXXXXX oooooooo",
"ooooooo ..XXXXXXXXXXXXX oooooooo",
"ooooooo ..XXXXXXXXXXXXX oooooooo",
"ooooooo ..XXXXXXXXXXXXX oooooooo",
"ooooooo ..XXXXXXXXXXXXX  ooooooo",
"oooooo  ..XXXXXXXXXXXXX X oooooo",
"ooooo . ..XXXXXXXXXXXXX X oooooo",
"ooooo . ..XXXXXXXXXXXXX X oooooo",
"ooooo . ..XXXXXXXXXXXXX X oooooo",
"oooooo  ..XXXXXXXXXXXXX   oooooo",
"oooooo  ..XXXX X ..XXXX  ooooooo",
"ooooooo ..XXXXX ..XXXXX oooooooo",
"ooooooo ..XXXXX .XXXXXX oooooooo",
"ooooooo ..XXXXX .XXXXXX oooooooo",
"ooooooo ..XXXX   .XXXXX oooooooo",
"ooooooo ..XXX     XXXXX oooooooo",
"ooooooo                 oooooooo",
"ooooooo ..XXXXX ..XXXXX oooooooo",
"ooooooo                 oooooooo",
"oooooooooooooooooooooooooooooooo"
};
