/* XPM */
static char *e0afcdc77616453ae2d005e0ac8a5331fOCs0FsAkzw6Bwkp[] = {
/* columns rows colors chars-per-pixel */
"32 32 5 1 ",
"  c #470000",
". c #7D0001",
"X c #8B73A8",
"o c #B9ADC6",
"O c white",
/* pixels */
"XXXXXXXXXXXXXXXXXXXXXXXXXXXXXXXX",
"XooooooooooooooooooooooooooooooX",
"XooooooooooooooooooooooooooooooX",
"XooooooooooooooooooooooooooooooX",
"XooooooooooooooooooooooooooooooX",
"XooooooooooooooooooooooooooooooX",
"XooooooooooooooooooooooooooooooX",
"XooooooooooooooooooooooooooooooX",
"XooooooooooooooooooooooooooooooX",
"XooooooooooooooooooooooooooooooX",
"Xooooooooooooooooooooo ...oooooX",
"Xoooooo ...oooooooo ...... ooooX",
"Xooooo ..O.oooooo  ...OOO...oooX",
"Xoooo .....oooooo ......OO..oooX",
"Xooooo   .oooooo ........O..oooX",
"Xooooooooooooooo ........O..oooX",
"Xoooooooooooooo  ...........oooX",
"Xoooooooooooooo ............oooX",
"Xoooooooooooooo ............oooX",
"Xooooooooooooo ............ooooX",
"Xoooooooooooo............. ooooX",
"Xooooooooo .............. oooooX",
"Xooooooo  .............  oo .OoX",
"Xooooooo ............. oooo ..oX",
"Xoooooo ..........  oooooo ..ooX",
"Xoooooo .OO...... oooooooooooooX",
"Xoooooo ..OO.... ooooooooooooooX",
"Xooooooo  .OO.. oooooooooooooooX",
"Xooooooooo     ooooooooooooooooX",
"XooooooooooooooooooooooooooooooX",
"XooooooooooooooooooooooooooooooX",
"XXXXXXXXXXXXXXXXXXXXXXXXXXXXXXXX"
};
