/* XPM */
static char *result[] = {
/* columns rows colors chars-per-pixel */
"32 32 5 1 ",
"  c black",
". c #7D0001",
"X c #EF0106",
"o c #ACACAC",
"O c None",
/* pixels */
"OOOOOOOOOOOOOOOOOOOOOOOOOOOOOOOO",
"OOOOOOOOOOOOOOOOOOOOOOOOOOOOOOOO",
"OOOOOOOOOOO         OOOOOOOOOOOO",
"OOOOOOOOOO ....XXXXX OOOOOOOOOOO",
"OOOOOOOOO ....XXXXXXX OOOOOOOOOO",
"OOOOOOOOO ....XXXXXXX OOOOOOOOOO",
"OOOOOOOO ...XXXXXXXXXX OOOOOOOOO",
"OOOOOOO ...XXXXXXXXXXXX OOOOOOOO",
"OOOOOOO ...XXXXXXXXXXXX OOOOOOOO",
"OOOOOOO ...XXXXXXXXXXXX OOOOOOOO",
"OOOOOOO ...XXXXXXXXXXXX OOOOOOOO",
"OOOOOOO ...XXXXXXXXXXXX OOOOOOOO",
"OOOOOOO ...XXXXXXXXXXXX OOOOOOOO",
"OOOOOOO ..XXXXXXXXXXXXX OOOOOOOO",
"OOOOOOO ..XXXXXXXXXXXXX OOOOOOOO",
"OOOOOOO ..XXXXXXXXXXXXX  OOOOOOO",
"OOOOOO   .XXXXXXXXXXXXX X OOOOOO",
"OOOOO ..X XXXXXXXXXXXXX X OOOOOO",
"OOOOO .XX XXXXXXXXXXXXX X OOOOOO",
"OOOOO ..X XXXXXXXXXXXXX X OOOOOO",
"OOOOOO . .XXXXXXXXXXXXX   OOOOOO",
"OOOOOO   .XXXXXXXXXXXXX  OOOOOOO",
"OOOOOOO ..XXXX X ..XXXX OOOOOOOO",
"OOOOOOO ..XXXXX ..XXXXX OOOOOOOO",
"OOOOOOO ..XXXXX .XXXXXX OOOOOOOO",
"OOOOOOO ..XXXXX .     X OOOOOOOO",
"OOOOOOO ..XXXX    ooo   OOOOOOOO",
"OOOOOOO          ooooo  OOOOOOOO",
"OOOOOOO  .XXX    o   o  OOOOOOOO",
"OOOOOOOO      O  ooooo  OOOOOOOO",
"OOOOOOOOOOOOOOO  o   o  OOOOOOOO",
"OOOOOOOOOOOOOOOO       OOOOOOOOO"
};
