/* XPM */
static char *result[] = {
/* columns rows colors chars-per-pixel */
"32 32 14 1 ",
"  c black",
". c #261203",
"X c #7E0003",
"o c #6D4614",
"O c #EF0308",
"+ c #C7A447",
"@ c #8C74A8",
"# c #ACACAC",
"$ c #F4BA88",
"% c #F8D882",
"& c #F8D8BB",
"* c #B9ADC6",
"= c white",
"- c None",
/* pixels */
"--------------------------------",
"--------------------------------",
"-----------         ------------",
"---------- XXXXOOOOO -----------",
"--------- XXXXOOOOOOO --   -----",
"--------- XXXXOOOOOOO --.o -----",
"-------- XXXOOOOOOOOOO .o$ -----",
"------- XXXOOOOOOOOOOOO.$ ------",
"------- XXXO         O.o$ ------",
"------- XXX ======== .o$ -------",
"------- XX  ==#=====.o$ --------",
"------- XX  =#===   o$  --------",
"------- XX  ====  X   O --------",
"------- XXX ==== XOO OO --------",
"------- XXX      XOO OO --------",
"------- XXXXOOO.o XO OO --------",
"------- XXXXOO.o$    OO --------",
"------- X    .o$ OOOOOO --------",
"------* X XO o$ OOOOOOO --------",
"---@--- X XOO  OOOOOOOO --------",
"-*--XX- * XOO OOOOOOOOO --------",
"@-X*@-X X.XX  OOOOOOOOO --------",
"-@*X-    .   O*O@OOOOOO --------",
"X*-* ++ .o$ OOXOOOO*OOO --------",
"-   ++%%&$ XO*OXO@OOOOO --------",
" ++++%X+&@XXOOOOXO@O*OO --------",
"- ++%%+%&     OXX       --------",
" %%%++%+@ XX*O  X XXOO  --------",
"- @+XX+%& X*O@O  XXOOOO --------",
" %%%+X%&& X#### @**#### --------",
"- ++%%&  XX             --------",
" %@%%  X-X-XX--*--*-------------"
};
