/* XPM */
static char *result[] = {
/* columns rows colors chars-per-pixel */
"32 32 14 1 ",
"  c black",
". c #7E0003",
"X c #6D4614",
"o c #EF0308",
"O c #ED050B",
"+ c #C7A447",
"@ c #8C74A8",
"# c #ACACAC",
"$ c #F4BA88",
"% c #F8D882",
"& c #F8D8BB",
"* c #B9ADC6",
"= c white",
"- c None",
/* pixels */
"--------------------------------",
"--------------------------------",
"-----------         ------------",
"---------- ....  ooo -----------",
"--------- .... X$ ooo ----------",
"--------- .... X$ ooo ----------",
"-------- ...oo X$ oooo ---------",
"------- ...ooo X$ ooooo --------",
"------- ...o   X$    oo --------",
"------- ... == X$ == oo --------",
"------- ..  == X$ ==  o --------",
"------- ..  =# X$ #== o --------",
"------- ..  ==     =  o --------",
"------- ... ==  .o = oo --------",
"------- ...    ..o   oo --------",
"------- ....oo  .o oooo --------",
"------- ....oo     oooo --------",
"------- ...ooo X$ ooooo --------",
"------- ..ooo     ooooo ---@@---",
"------- ..ooo .o  ooooo ---@----",
"-----@- ..ooo .oo ooooo --------",
"----@-- ..ooo .o  *o*oo --------",
"--*---- ..o*@     o@.oO --------",
"-*-*--- ..o@  +%+&  .o@ .--.*---",
"------- *..@ +%*@+& o.o --------",
"------. .... +%+@+&  oo -----@--",
"------- .@ @+%+%*%+& *  ---.*-@-",
"-------  .* +.+.+%.@ o  -.------",
"--@-@.- .*. +.+*+.+& .o ----*---",
"-----.- .#@ @%+%+%+@ .. @-------",
"-------*    + + @ +   . @-------",
"--@-------*.. . . -  .----------"
};
