/* XPM */
static char *result[] = {
/* columns rows colors chars-per-pixel */
"32 32 27 1 ",
"  c black",
". c #030000",
"X c #040000",
"o c #0C0000",
"O c #0B0B0B",
"+ c #150000",
"@ c #170001",
"# c #1C0001",
"$ c #260001",
"% c #261203",
"& c #7E0003",
"* c #7F070D",
"= c #6D4614",
"- c #CB0206",
"; c #D00307",
": c #EA0308",
"> c #EB0308",
", c #EF0308",
"< c #C7A447",
"1 c #8C74A8",
"2 c #ACACAC",
"3 c #F4BA88",
"4 c #F8D882",
"5 c #F8D8BB",
"6 c #B9ADC6",
"7 c white",
"8 c None",
/* pixels */
"88888888888888888888888888888888",
"88888888888888888888888888888888",
"88888888888         888888888888",
"8888888888 &&&&,,,,, 88888888888",
"8   88888 &&&&,,,,,,, 8888888888",
"8 3 88888 &&&&,,,,,,, 8888888888",
"8 =3 888 &&&,,,,,,,,,, 888888888",
"88 =3 8 &&&,,,,,,,,,,,, 88888888",
"88 ==3  &&&,         ,, 88888888",
"888 ==3 &&& 77777777 ,, 88888888",
"8888 =3 &&  77277777  , 88888888",
"88888 =3X&  727777277 , 88888888",
"888888 =     7777277  , 88888888",
"8888888  &,, 7772777 ,, 88888888",
"8888888  &,,         ,, 88888888",
"8888888   ,  ,,,,,,,,,, 88888888",
"8888888 &   3 ,,,,,,,,, 88888888",
"8888888 &&,@=   ,,,,,,, 88888888",
"8888888 &&,,  &  ,,,,,, 888&&118",
"8888888 &&,, &,, -,,,6, 888&8818",
"8888888 &&,, &,,  ;,,,, 88888688",
"8888888 &&,,     3 >6,6 68688888",
"8888888 &&,,,,,, =3.$#  88888888",
"8888888 &&,,,&,,, =% 55 &8866818",
"8888888 &&,6,,&,,& <4465   88868",
"8888888 &&&,1,&,&:o6544515& 8188",
"8888888 &     ,&&6 64&&&65&6&818",
"8888888   &&,,  & +65455111 8818",
"8888888  &&,6,,  &.<4&4&55 86888",
"8888888  2622221 2O&<455144 8&88",
"8888888            & <<&1*&8&888",
"888888888888811&888&&& <<&< 8688"
};
