/* XPM */
static char *result[] = {
/* columns rows colors chars-per-pixel */
"32 32 11 1 ",
"  c black",
". c #0D1235",
"X c #7E0003",
"o c #1F297C",
"O c #EF0308",
"+ c #913943",
"@ c #4055FF",
"# c #8C74A8",
"$ c #ACACAC",
"% c #B9ADC6",
"& c white",
/* pixels */
"################################",
"#%%%%%%%%%%%%%%%%%%%%%%%%%%%%%%#",
"#%%%%%%%%%%%%%%%%%%%%%%%%%%%%%%#",
"#%%%%%%%%%%%%%%%%%%%%%%%%%%%%%%#",
"#%%%%%%%%%%%%%%%X%%XXXX%%%%%%%%#",
"#%%%%%%%%%%%%%%%%%XXOOX%%%%%%%%#",
"#%%%%%%%%%%   XX%OXXXOX+%%%%%%%#",
"#%%%%%%%%%  && X%%XXXOX   %%%%%#",
"#%%        $$$&X% XXOX @@  %%%%#",
"#%  o@@@@    $&X XXOXO @@@@  %%#",
"#  o@@    $& $&X OXOOX @@@@@ %%#",
"# oo@. & $$&&&&&X XXOX @@@@@ %%#",
"# oo@ &$XXXXX$&&XX XOX @@@@@ O%#",
"# oo  $XXOOOOXX$$X XO  o@@@@ XO#",
"# oo   XXXXXXOXX  XO  ooo     X#",
"# o &$ XXXXXX  XXXO  oo   o@@  #",
"#   &$& XXXXX OOOO  ooo ooo@@@ #",
"#%      @  XX XX      o oo@@@@ #",
"#%X  oo   XOX  O oo@@    oo@   #",
"#%%X    XXXXXX         X     O%#",
"#%%XXXXXXOOOXXXXXXXXXXXXXOOOOO%#",
"#%%%%%%%XXXOOXXXXXOOXXXXOO%%%%%#",
"#%%%%%%%%XXXOOOOOOOX%%XO%%%%%%%#",
"#%%%%%%%%%%XXXXOOXX%%%%%%%%%%%%#",
"#%%%%%%%%%%%%%XXX%%%%%%%%%%%%%%#",
"#%%%%%%%%%%%%%%%%%%%%%%%%%%%%%%#",
"#%%%%%%%%%%%%%%%%%%%%%%%%%%%%%%#",
"#%%%%%%%%%%%%%%%%%%%%%%%%%%%%%%#",
"#%%%%%%%%%%%%%%%%%%%%%%%%%%%%%%#",
"#%%%%%%%%%%%%%%%%%%%%%%%%%%%%%%#",
"#%%%%%%%%%%%%%%%%%%%%%%%%%%%%%%#",
"################################"
};
