/* XPM */
static char *result[] = {
/* columns rows colors chars-per-pixel */
"32 32 10 1 ",
"  c black",
". c #0D1235",
"X c #7E0003",
"o c #1F297C",
"O c #EF0308",
"+ c #4055FF",
"@ c #8C74A8",
"# c #ACACAC",
"$ c #B9ADC6",
"% c white",
/* pixels */
"@@@@@@@@@@@@@@@@@@@@X@@@@@@XX@@@",
"@$$$$$$$$$$$$$$$$$$$XXXX$XXX$$$@",
"@$X$$XX$$$$$$$$$$$$$$$$XXXO$$$$@",
"@$$XOX$$$$$$$$$$$$$$$$$$XXO$$$$@",
"@$$$XX$$$$$$$$$$$$$$$$$$$XO$$$$@",
"@$$$$$$$$$$$$$$$$$$$$$$$$$$$$$$@",
"@$$$$$$$$$$    $$$$$$$$$$$$$$$$@",
"@$$$$$$$$$  %%  $$        $$$$$@",
"@$$        ###% $  OOO ++  $$$$@",
"@$  o++++    #%   OXXO ++++  $$@",
"@  o++    #% #%  OXXOX +++++ $$@",
"@ oo+. % ##%%%%%   XOX +++++ $$@",
"@ oo+ %#  ## #%%%% XOX +++++ O$@",
"@ oo  ##%     ###% XO  o++++ XO@",
"@ oo   %  +  X    XO  ooo     X@",
"@ o %# % ++ X  XXXO  oo   o++  @",
"@   %#% ++  X OOOO  ooo ooo+++ @",
"@$      +  XX XX      o oo++++ @",
"@$X  oo   XXX  O oo++    oo+   @",
"@$$X    XXXXXX         X     O$@",
"@$$XXXXXXOOOXXXXXXXXXXXXXOOOOO$@",
"@$$$$X$XXXXOOXXXXXOOXXXXOO$$$$$@",
"@$XXO$O$$XXXOOOOOOOX$$XO$$$$$$$@",
"@X$$XXX$$$$XXXXOOXX$$$$$$$$$$$$@",
"@$$$$XO$$$$$$$XXX$$$$$$$$$$$$$$@",
"@$$$$$$$$$$$$$$$$$$$$$$$$$$$$$$@",
"@$$$$$$$$$$$$$$$$$$$$$$$$$$$$$$@",
"@$$$$$$$$$$$$$$$$$$$$$$$$$$$$$$@",
"@$$$$$$$$$$$$$$$$$$$$$$$$$$$$$$@",
"@$$$$$$$$$$$$$$$$$$$$$$$$$$$$$$@",
"@$$$$$$$$$$$$$$$$$$$$$$$$$$$$$$@",
"@@@@@@@@@@@@@@@@@@@@@@@@@@@@@@@@"
};
