/* XPM */
static char *result[] = {
/* columns rows colors chars-per-pixel */
"32 32 7 1 ",
"  c black",
". c #7D0001",
"X c #EF0106",
"o c #ACACAC",
"O c #AEAEAE",
"+ c white",
"@ c None",
/* pixels */
"@@@@@@@@@@@@@@@@@@@@@@@@@@@@@@@@",
"@@@@@@@@@@@@@@@@@@@@@@@@@@@@@@@@",
"@@@@@@@@@@@@@@@@@@@@@@@@@@@@@@@@",
"@@@@@@@@@@@@       @@@@@@@@@@@@@",
"@@@@@@@@@@  ....XXX  @@@@@@@@@@@",
"@@@@@@@@@ .....XXXXXX @@@@@@@@@@",
"@@@@@@@@ ....XXXXXXXXX @@@@@@@@@",
"@@@@@@@@ ....XXXXXXXXX @@@@@@@@@",
"@@@@@@@  ...XXXXXXXXXX  @@@@@@@@",
"@@@@@@@ ....         XX @@@@@@@@",
"@@@@@@@ ... ++++++++ XX @@@@@@@@",
"@@@@@@@ ..  +++o++++  X @@@@@@@@",
"@@@@@@@ ..  ++o+++o++ X @@@@@@@@",
"@@@@@@@ ..  +O+++o+++ X @@@@@@@@",
"@@@@@@@ ... ++++++++  X @@@@@@@@",
"@@@@@@@ ...          XX @@@@@@@@",
"@@@@@@@ ....XXXXXXXXXXX @@@@@@@@",
"@@@@@@  ....XXXXXXXXXX  @@@@@@@@",
"@@@@@   ....XXXXXXXX   X @@@@@@@",
"@@@@@ . ...XXXXXXXXX ..X @@@@@@@",
"@@@@@ . ...XXXXXXXXX .XX @@@@@@@",
"@@@@@@  ...XXXXXXXXX ..X @@@@@@@",
"@@@@@@  ...XXXXXXXXX  .  @@@@@@@",
"@@@@@@@ ...XXXXXXXXXX   @@@@@@@@",
"@@@@@@@ .     XXXXXXXXX @@@@@@@@",
"@@@@@@@   ooo  X..XXXXX @@@@@@@@",
"@@@@@@@  ooooo ...XXXXX @@@@@@@@",
"@@@@@@@  o   o  ..XXXXX @@@@@@@@",
"@@@@@@@  ooooo   .XXX   @@@@@@@@",
"@@@@@@@  o   o       X  @@@@@@@@",
"@@@@@@@   ooo     .XXX  @@@@@@@@",
"@@@@@@@@       @@      @@@@@@@@@"
};
