/* XPM */
static char *e2aaae038cb640bd80c9ac2e08298710L5bFtUBVPtOihDcY[] = {
/* columns rows colors chars-per-pixel */
"32 32 2 1 ",
"  c #3E314C",
". c #9483A8",
/* pixels */
"                                ",
"                                ",
"                                ",
"                                ",
"    ........................    ",
"    ........................    ",
"    ........................    ",
"    ........................    ",
"    ........................    ",
"    ........................    ",
"    ........................    ",
"    ........................    ",
"    ........................    ",
"    ........................    ",
"    ........................    ",
"    ........................    ",
"    ........................    ",
"    ........................    ",
"    ........................    ",
"    ........................    ",
"    ........................    ",
"    ........................    ",
"    ........................    ",
"    ........................    ",
"    ........................    ",
"    ........................    ",
"    ........................    ",
"    ........................    ",
"                                ",
"                                ",
"                                ",
"                                "
};
