/* XPM */
static char *result[] = {
/* columns rows colors chars-per-pixel */
"32 32 6 1 ",
"  c black",
". c #3E3E3E",
"X c #8C74A8",
"o c #848484",
"O c #ACACAC",
"+ c #B9ADC6",
/* pixels */
"XXXXXXXXXXXXXXXXXXXXXXXXXXXXXXXX",
"X++++++++++++++++++++++++++++++X",
"X++++++++++++++++++++++++++++++X",
"X++++++++++++++++++++++++++++++X",
"X++++++++++          ++++++++++X",
"X++++++++   ...oooOO   ++++++++X",
"X+++++++  ....ooooooOO  +++++++X",
"X++++++  ...oooooooooOO  ++++++X",
"X+++++  ...oooooooooooOO  +++++X",
"X+++++ ...ooooooooooooOOO +++++X",
"X++++  ..oooooooooooooOOOO ++++X",
"X++++ ...ooooooooooooooOOO ++++X",
"X+++ ...ooooooooooooooooOOO +++X",
"X+++ ...ooooooooooooooooOOO +++X",
"X+++ ...ooooooooooooooooOOO +++X",
"X+++ ...ooooooooooooooooOOO +++X",
"X+++ ...ooooooooooooooooOOO +++X",
"X+++ ...ooooooooooooooooOOO +++X",
"X+++ ...ooooooooooooooooOOO +++X",
"X+++  ..oooooooooooooooOOO  +++X",
"X++++ ...ooooooooooooooOOO ++++X",
"X++++  ..oooooooooooooOOO  ++++X",
"X+++++ ..oooooooooooooOOO +++++X",
"X++++++ ...ooooooooooOOO ++++++X",
"X+++++++ ...ooooooooOOO +++++++X",
"X++++++++  ...ooooOOO  ++++++++X",
"X+++++++++    .ooO    +++++++++X",
"X++++++++++++      ++++++++++++X",
"X++++++++++++++++++++++++++++++X",
"X++++++++++++++++++++++++++++++X",
"X++++++++++++++++++++++++++++++X",
"XXXXXXXXXXXXXXXXXXXXXXXXXXXXXXXX"
};
