/* XPM */
static char *result[] = {
/* columns rows colors chars-per-pixel */
"32 32 6 1 ",
"  c black",
". c #3E3E3E",
"X c #8C74A8",
"o c #848484",
"O c #ACACAC",
"+ c #B9ADC6",
/* pixels */
"XXXXXXXXXXXXXXXXXXXXXXXXXXXXXXXX",
"X++++++++++++++++++++++++++++++X",
"X++++++++++++++++++++++++++++++X",
"X++++++++++++++++++++++++++++++X",
"X++++++++++          ++++++++++X",
"X++++++++   ..o  OOO   ++++++++X",
"X+++++++  ..ooooo  oOO  +++++++X",
"X++++++  ..ooooooo  oOO  ++++++X",
"X+++++  ..ooooooooo ooOO  +++++X",
"X+++++ ..ooooooooooo oOOO +++++X",
"X++++        ooooooo oOOOO ++++X",
"X++++ ..oooo   oooo  ooOOO ++++X",
"X+++ ..ooooooo  ooo ooooOOO +++X",
"X+++ ..oooooooo  o  ooooOOO +++X",
"X+++ ..ooooooooo o oooooOO  +++X",
"X+++ ..oo         ooooooOO  +++X",
"X+++ ..  oooooo    oooooO O +++X",
"X+++   oooooo  oo    oo  OO +++X",
"X+++  ..oooo  ooo oo   oOOO +++X",
"X+++  ..oooo ooooo ooooOOO  +++X",
"X++++ ...oo oooooo  oooOOO ++++X",
"X++++  ..oo oooooooo  OOO  ++++X",
"X+++++ ..oo ooooooooo     +++++X",
"X++++++ ..  oooooooooOOO ++++++X",
"X+++++++ .  ooooooooOOO +++++++X",
"X++++++++   ooooooOOO  ++++++++X",
"X+++++++++    oooO    +++++++++X",
"X++++++++++++      ++++++++++++X",
"X++++++++++++++++++++++++++++++X",
"X++++++++++++++++++++++++++++++X",
"X++++++++++++++++++++++++++++++X",
"XXXXXXXXXXXXXXXXXXXXXXXXXXXXXXXX"
};
