/* XPM */
static char *result[] = {
/* columns rows colors chars-per-pixel */
"32 32 6 1 ",
"  c black",
". c #3E3E3E",
"X c #8C74A8",
"o c #848484",
"O c #ACACAC",
"+ c #B9ADC6",
/* pixels */
"XXXXXXXXXXXXXXXXXXXXXXXXXXXXXXXX",
"X++++++++++++++++++++++++++++++X",
"X++++++++++++++++++++++++++++++X",
"X++++++++++++++++++++++++++++++X",
"X++++++++++          ++++++++++X",
"X++++++++   ....OOOO   ++++++++X",
"X+++++++  ..ooooo  oOO  +++++++X",
"X++++++  ..oooooo   oOO  ++++++X",
"X+++++  ..oooooooo   oOO  +++++X",
"X+++++ .      oooo    OOO +++++X",
"X++++ .         oo    OOOO ++++X",
"X++++ . oooo     o    OOOO ++++X",
"X+++ ..oooooo         OoOOO +++X",
"X+++ ..ooo            OoOOO +++X",
"X+++ ..oo             ooO O +++X",
"X+++ ..o             oo   O +++X",
"X+++ ..o             o    O +++X",
"X+++ ..  ooo             OO +++X",
"X+++ .. ooo             OOO +++X",
"X+++  ..ooo     o      OOOO +++X",
"X++++ ...o    ooo   OOOOOO ++++X",
"X++++  ..o   oooo     OOOO ++++X",
"X+++++ ..oo  oooo       O +++++X",
"X++++++ ..o oooooo       ++++++X",
"X+++++++ .o ooooooo     +++++++X",
"X++++++++ ...oooooOOOO ++++++++X",
"X+++++++++   .ooOOO   +++++++++X",
"X++++++++++++      ++++++++++++X",
"X++++++++++++++++++++++++++++++X",
"X++++++++++++++++++++++++++++++X",
"X++++++++++++++++++++++++++++++X",
"XXXXXXXXXXXXXXXXXXXXXXXXXXXXXXXX"
};
