/* XPM */
static char *result[] = {
/* columns rows colors chars-per-pixel */
"32 32 6 1 ",
"  c black",
". c #3E3E3E",
"X c #8C74A8",
"o c #848484",
"O c #ACACAC",
"+ c #B9ADC6",
/* pixels */
"XXXXXXXXXXXXXXXXXXXXXXXXXXXXXXXX",
"X++++++++++++++++++++++++++++++X",
"X++++++++++++++++++++++++++++++X",
"X++++++++++++++++++++++++++++++X",
"X++++++++++          ++++++++++X",
"X++++++++   ....OOOO   ++++++++X",
"X+++++++  ..ooo     OO  +++++++X",
"X++++++  ..  oo      OO  ++++++X",
"X+++++  ..    o        O  +++++X",
"X+++++ .                O +++++X",
"X++++ .                 OO ++++X",
"X++++ .                OOO ++++X",
"X+++ .                    O +++X",
"X+++ .                    O +++X",
"X+++ ..                   O +++X",
"X+++ ...                  O +++X",
"X+++ ..                   O +++X",
"X+++ .                    O +++X",
"X+++ .                    O +++X",
"X+++  .                   O +++X",
"X++++ ...              OOO ++++X",
"X++++  ..               OO ++++X",
"X+++++ ..               O +++++X",
"X++++++ .              O ++++++X",
"X+++++++ .      o     O +++++++X",
"X++++++++ ... oooo OOO ++++++++X",
"X+++++++++   ...OOO   +++++++++X",
"X++++++++++++      ++++++++++++X",
"X++++++++++++++++++++++++++++++X",
"X++++++++++++++++++++++++++++++X",
"X++++++++++++++++++++++++++++++X",
"XXXXXXXXXXXXXXXXXXXXXXXXXXXXXXXX"
};
