/* XPM */
static char *result[] = {
/* columns rows colors chars-per-pixel */
"32 32 7 1 ",
"  c black",
". c #2E380B",
"X c #3E3E3E",
"o c #7AF44B",
"O c #8C74A8",
"+ c #ACACAC",
"@ c #B9ADC6",
/* pixels */
"OOOOOOOOOOOOOOOOOOOOOOOOOOOOOOOO",
"O@@@@@@@@@@@@@@@@@@@@@@@@@@@@@@O",
"O@@@@@@@@@@@@@@@@@@@@@@@@@@@@@@O",
"O@@@@@@@@@@@@@@@@@@@@@@@@@@@@@@O",
"O@@@@@@@@@@          @@@@@@@@@@O",
"O@@@@@@@@   XXXX++++   @@@@@@@@O",
"O@@@@@@@  XX        ++  @@@@@@@O",
"O@@@@@@  XX          ++  @@@@@@O",
"O@@@@@  XX             +  @@@@@O",
"O@@@@@ X                + @@@@@O",
"O@@@@ X                  + @@@@O",
"O@@@@ X                  + @@@@O",
"O@@@ X .................  + @@@O",
"O@@@ X .ooo.o.o.ooo.ooo.  + @@@O",
"O@@@ X .o...ooo..o...o..  + @@@O",
"O@@@ X .oo...o...o...o..  + @@@O",
"O@@@ X .o...ooo..o...o..  + @@@O",
"O@@@ X .ooo.o.o.ooo..o..  + @@@O",
"O@@@ X .................  + @@@O",
"O@@@  X                   + @@@O",
"O@@@@ X                  + @@@@O",
"O@@@@  X                 + @@@@O",
"O@@@@@ XX               + @@@@@O",
"O@@@@@@ X              + @@@@@@O",
"O@@@@@@@ X            + @@@@@@@O",
"O@@@@@@@@ XXX      +++ @@@@@@@@O",
"O@@@@@@@@@   XXXX++   @@@@@@@@@O",
"O@@@@@@@@@@@@      @@@@@@@@@@@@O",
"O@@@@@@@@@@@@@@@@@@@@@@@@@@@@@@O",
"O@@@@@@@@@@@@@@@@@@@@@@@@@@@@@@O",
"O@@@@@@@@@@@@@@@@@@@@@@@@@@@@@@O",
"OOOOOOOOOOOOOOOOOOOOOOOOOOOOOOOO"
};
