/* XPM */
static char *result[] = {
/* columns rows colors chars-per-pixel */
"32 32 6 1 ",
"  c black",
". c #7D0001",
"X c #EF0106",
"o c #ACACAC",
"O c white",
"+ c None",
/* pixels */
"++++++++++++++++++++++++++++++++",
"++++++++++++++++++++++++++++++++",
"++++++++++++       +++++++++++++",
"++++++++++  ...XXXX  +++++++++++",
"+++++++++ ...XXXXXXXX ++++++++++",
"++++++++ ...XXXXXXXXXX +++++++++",
"++++++++ ..XXXXXXXXXXX +++++++++",
"+++++++  .XXXXXXXXXXXX  ++++++++",
"+++++++ ..XXXXXXXXX     ++++++++",
"+++++++ ..XXXXXXXXX OOO ++++++++",
"+++++++ ..XXXXXXXX OOOO ++++++++",
"+++++++ ..XXXXXXXX OOOo ++++++++",
"+++++++ ..XXXXXXXX OOoO ++++++++",
"+++++++ ..XXXXXXXX OOOO ++++++++",
"+++++++ ..XXXXXXXXX     ++++++++",
"+++++++ ..XXXXXXXXXXXXX ++++++++",
"+++++++ ..XXXXXX   XXXX ++++++++",
"+++++++ ..XXXXX ..X XXX ++++++++",
"+++++++ ..XXXXX .XX XXX ++++++++",
"+++++++ ..XXXXX ..X XXX ++++++++",
"+++++++ ..XXXXXX . XXXX ++++++++",
"+++++++ ..XXXXXX   XXXX ++++++++",
"+++++++ ..XXXXXXXXXXXXX ++++++++",
"+++++++ ..XXXXXXXXXXXXX ++++++++",
"+++++++     XXXXXXXXXXX ++++++++",
"+++++++ .XX  XXXXXXXXX   +++++++",
"+++++++ .XXX  XXXXXXX  X +++++++",
"+++++++  oXXX         Xo +++++++",
"++++++++  oXXX  + ooooo  +++++++",
"+++++++++  oXXX +       ++++++++",
"++++++++++  ooo ++++++++++++++++",
"+++++++++++     ++++++++++++++++"
};
