/* XPM */
static char *be216aa20bad45c18118c8d8e64536b7tbgKMpaexdVmbYje[] = {
/* columns rows colors chars-per-pixel */
"32 32 2 1 ",
"  c #3E314C",
". c #9483A8",
/* pixels */
"                                ",
"                                ",
"                                ",
"                                ",
"............................    ",
"............................    ",
"............................    ",
"............................    ",
"............................    ",
"............................    ",
"............................    ",
"............................    ",
"............................    ",
"............................    ",
"............................    ",
"............................    ",
"............................    ",
"............................    ",
"............................    ",
"............................    ",
"............................    ",
"............................    ",
"............................    ",
"............................    ",
"............................    ",
"............................    ",
"............................    ",
"............................    ",
"                                ",
"                                ",
"                                ",
"                                "
};
