/* XPM */
static char *db65561983ab4e12ec33893de8e97568Kq07BcvtkWQPGp3U[] = {
/* columns rows colors chars-per-pixel */
"32 32 2 1 ",
"  c #40334E",
". c #9584A8",
/* pixels */
"    ........................    ",
"    ........................    ",
"    ........................    ",
"    ........................    ",
"    ........................    ",
"    ........................    ",
"    ........................    ",
"    ........................    ",
"    ........................    ",
"    ........................    ",
"    ........................    ",
"    ........................    ",
"    ........................    ",
"    ........................    ",
"    ........................    ",
"    ........................    ",
"    ........................    ",
"    ........................    ",
"    ........................    ",
"    ........................    ",
"    ........................    ",
"    ........................    ",
"    ........................    ",
"    ........................    ",
"    ........................    ",
"    ........................    ",
"    ........................    ",
"    ........................    ",
"    ........................    ",
"    ........................    ",
"    ........................    ",
"    ........................    "
};
