/* XPM */
static char *cb63068cc3f14cf4ce9abad10590c64bjpPz7XLyOqMBIA6S[] = {
/* columns rows colors chars-per-pixel */
"32 32 2 1 ",
"  c #40334E",
". c #9584A8",
/* pixels */
"                                ",
"                                ",
"                                ",
"                                ",
"................................",
"................................",
"................................",
"................................",
"................................",
"................................",
"................................",
"................................",
"................................",
"................................",
"................................",
"................................",
"................................",
"................................",
"................................",
"................................",
"................................",
"................................",
"................................",
"................................",
"................................",
"................................",
"................................",
"................................",
"                                ",
"                                ",
"                                ",
"                                "
};
